<svg xmlns="http://www.w3.org/2000/svg" version="1.1" xmlns:xlink="http://www.w3.org/1999/xlink" xmlns:svgjs="http://svgjs.dev/svgjs" width="100%" height="100%" viewBox="0 0 1000 600"><rect width="1000" height="600" x="0" y="0" fill="red"/><g><rect width="333.3333333333333" height="333.3333333333333" rx="13.333333333333334" ry="13.333333333333334" y="193.92877028197051" fill="#161b21" transform="matrix(0.727986236510216,0,0,0.727986236510216,0,37.49148854376644)" x="171.70654296875"/><path d="M280.07347746305567 303.7405993649815L296.50492930062205 302.2957068721076Q297.479391679537 309.7889865444538 298.2186390014725 319.9704382965655Q298.9242841724109 330.1182878976801 299.2939078333787 340.8709762167419Q299.66353149434644 351.6572666868008 299.66353149434644 361.3346861739564L299.66353149434644 361.3346861739564L299.66353149434644 433.6801172706443Q298.45385405845195 434.15054738460327 295.9000905826748 434.7553861025505Q293.3799292578947 435.36022482049776 290.72535932912626 435.36022482049776L290.72535932912626 435.36022482049776Q285.38261732059243 435.36022482049776 282.7280473918241 433.3104936096766Q280.07347746305567 431.26076239885543 280.07347746305567 426.6572677122571L280.07347746305567 426.6572677122571L280.07347746305567 303.7405993649815ZM396.6729414228824 417.4502783390604L379.9726723773395 418.8951708319343Q377.5533175055506 398.5994716297051 377.2172959955799 377.43011650155216Q376.8476723346121 356.26076137339913 376.8476723346121 336.40189013413186L376.8476723346121 336.40189013413186L376.8476723346121 287.54436258439466Q378.2925648274861 287.0403303194386 380.711919699275 286.4354916014914Q383.1312745710639 285.8306528835442 386.0210595568118 285.8306528835442L386.0210595568118 285.8306528835442Q391.3638015653456 285.8306528835442 394.01837149411404 287.91398624536237Q396.6729414228824 289.96371745618353 396.6729414228824 294.5672121427819L396.6729414228824 294.5672121427819L396.6729414228824 417.4502783390604ZM396.6729414228824 410.19221372369367L396.6729414228824 409.21775134477866L396.6729414228824 431.49597745583486Q394.48880160807295 433.1760850056883 391.12858650836614 434.38576244158276Q387.73476925766226 435.5954398774772 383.60170468502287 435.5954398774772L383.60170468502287 435.5954398774772Q377.82213471352713 435.5954398774772 373.68907014088774 433.3104936096766Q369.5896077192454 430.9919451908789 366.19579046854153 424.9435580114066L366.19579046854153 424.9435580114066L320.22804790455217 347.5242021141614Q316.5990155968688 341.00538482073017 312.23073596725 333.1424814874162Q307.89605848862817 325.27957815410224 304.0318111239653 318.1559221427238Q300.1339616083054 310.9986639803483 297.98342394449304 306.3951692937499L297.98342394449304 306.3951692937499L280.07347746305567 310.9986639803483L280.07347746305567 289.96371745618353Q281.98880006988855 288.0147926983536 285.5170259245807 286.80511526245914Q289.0116496282758 285.59543782656465 293.1447142009152 285.59543782656465L293.1447142009152 285.59543782656465Q298.9242841724109 285.59543782656465 303.0573487450503 287.91398624536237Q307.15681116669265 290.198932513163 310.5506284173965 296.2473196926353L310.5506284173965 296.2473196926353L356.75358603836537 373.6666755898805Q360.6178334030282 380.1854928833117 364.8517044286588 388.0483962166257Q369.08557545428937 395.91129954993966 372.71460776197273 403.06855771231517Q376.34364006965615 410.19221372369367 378.5277798844656 414.795708410292L378.5277798844656 414.795708410292L396.6729414228824 410.19221372369367Z " fill="white" transform="matrix(0.727986236510216,0,0,0.727986236510216,0,37.49148854376644)"/><path d="M588.3732096239755 314.35712995903395L603.2878089620892 313.04562122378064Q604.1723148533065 319.84716652521075 604.843319322506 329.08872807827504Q605.4838235885599 338.29978942819383 605.8193258231595 348.0598544347303Q606.1548280577592 357.8504196444122 606.1548280577592 366.6344781502951L606.1548280577592 366.6344781502951L606.1548280577592 432.3014155223984Q605.056820744524 432.72841836643437 602.7388053054715 433.277422023052Q600.4512900695645 433.82642567966974 598.0417740210758 433.82642567966974L598.0417740210758 433.82642567966974Q593.192241720953 433.82642567966974 590.7827256724643 431.9659132877987Q588.3732096239755 430.1054008959277 588.3732096239755 425.92687306500426L588.3732096239755 425.92687306500426L588.3732096239755 314.35712995903395ZM694.2089145386058 417.5698174031574L679.0503135753286 418.8813261384107Q676.854298948858 400.45920343857307 676.5492969174037 381.24407545695436Q676.2137946828041 362.02894747533566 676.2137946828041 344.0033274163886L676.2137946828041 344.0033274163886L676.2137946828041 299.6560320429384Q677.5253034180573 299.198528995757 679.7213180445281 298.64952533913936Q681.9173326709988 298.1005216825217 684.5403501415055 298.1005216825217L684.5403501415055 298.1005216825217Q689.3898824416283 298.1005216825217 691.799398490117 299.9915342775381Q694.2089145386058 301.8520466694091 694.2089145386058 306.0305745003326L694.2089145386058 306.0305745003326L694.2089145386058 417.5698174031574ZM694.2089145386058 410.98177352374523L694.2089145386058 410.09726763252786L694.2089145386058 430.31890231794563Q692.226401334153 431.843912475217 689.1763810196103 432.94191978845237Q686.0958605019223 434.03992710168774 682.3443355150348 434.03992710168774L682.3443355150348 434.03992710168774Q677.0983005740213 434.03992710168774 673.3467755871338 431.9659132877987Q669.6257508033918 429.86139927076425 666.5452302857038 424.3713627045875L666.5452302857038 424.3713627045875L624.8209523827602 354.0988946575248Q621.5269304430542 348.181855247312 617.5619040341487 341.0448077112822Q613.6273778283887 333.9077601752524 610.1198544666647 327.441717108422Q606.5818309017952 320.9451738384461 604.629817900488 316.7666460075227L604.629817900488 316.7666460075227L588.3732096239755 320.9451738384461L588.3732096239755 301.8520466694091Q590.1117212032649 300.08303488697436 593.3142425335348 298.98502757373905Q596.486263660659 297.8870202605037 600.2377886475465 297.8870202605037L600.2377886475465 297.8870202605037Q605.4838235885599 297.8870202605037 609.2353485754473 299.9915342775381Q612.9563733591893 302.0655480914271 616.0368938768775 307.5555846576039L616.0368938768775 307.5555846576039L657.9746732018389 377.8280527046666Q661.482196563563 383.74509211487936 665.3252221598867 390.88213965090915Q669.1682477562105 398.01918718693895 672.4622696959166 404.5157304569148Q675.7562916356226 410.98177352374523 677.7388048400753 415.16030135466866L677.7388048400753 415.16030135466866L694.2089145386058 410.98177352374523ZM736.6041969107484 393.2001550899616L735.7196910195312 379.35306286193793L802.0271326576885 370.35550293403713Q801.1731269696165 358.2774224884482 793.700577198987 350.49987068636443Q786.2280274283576 342.69181868113526 773.0519396695333 342.69181868113526L773.0519396695333 342.69181868113526Q759.4488490666729 342.69181868113526 750.5427897482084 352.45188368767174Q741.6367304297439 362.24244889735365 741.6367304297439 380.4510701751733L741.6367304297439 380.4510701751733L741.6367304297439 385.3006024752961Q743.1922407901607 402.8687194870618 753.1658072187151 411.9882802275443Q763.1698738504151 421.0773407648814 780.5244894401628 421.0773407648814L780.5244894401628 421.0773407648814Q789.7355507900816 421.0773407648814 797.208100560711 418.0273204503388Q804.6806503313405 414.94679993265066 809.072679584282 411.4392765709266L809.072679584282 411.4392765709266Q811.4821956327708 412.9642867281979 812.9157051806058 415.038300542087Q814.3492147284408 417.1428145591214 814.3492147284408 419.7658320296281L814.3492147284408 419.7658320296281Q814.3492147284408 423.9443598605515 809.6216832408998 427.57388403485726Q804.8941517533585 431.203408209163 797.0860997481293 433.39942283563374Q789.3085479460456 435.5954374621045 779.6399835489453 435.5954374621045L779.6399835489453 435.5954374621045Q762.7428710063791 435.5954374621045 750.3292883261904 429.43439642672826Q737.9157056460019 423.27335539135214 731.205660954008 411.1037743363269Q724.5261164651597 398.9036930781563 724.5261164651597 381.3355760663907L724.5261164651597 381.3355760663907Q724.5261164651597 368.83049277676577 728.1556406394654 359.03992756708385Q731.7546646106257 349.2798625605474 738.2512078806017 342.47831725911726Q744.7172509474319 335.67677195768715 753.7148108753329 332.0472477833814Q762.7428710063791 328.4177236090756 773.2654410915513 328.4177236090756L773.2654410915513 328.4177236090756Q786.6550302723936 328.4177236090756 796.8725983261113 334.1212615972704Q807.0901663798293 339.82479958546514 812.9157051806058 350.04236763918306Q818.7412439813822 360.2599356929009 818.7412439813822 373.4360234517252L818.7412439813822 373.4360234517252Q818.7412439813822 378.2550555487026 816.5452293549115 380.359569565737Q814.3492147284408 382.433583379626 810.3841883195353 382.8910864268074L810.3841883195353 382.8910864268074L736.6041969107484 393.2001550899616ZM844.4224150298314 374.7475321869785L861.9905320415971 374.7475321869785L861.9905320415971 405.0647341135325Q861.9905320415971 413.84879261941535 867.0535657637379 417.4783167937211Q872.0860992827334 421.0773407648814 880.8701577886161 421.0773407648814L880.8701577886161 421.0773407648814Q884.6216827755036 421.0773407648814 889.2272134504628 419.7658320296281Q893.8327441254223 418.4543232943748 896.9132646431103 416.68531151194003L896.9132646431103 416.68531151194003Q898.2247733783638 418.0273204503388 899.3227806915991 419.9793334516461Q900.4207880048345 421.96184665609877 900.4207880048345 424.6153643297509L900.4207880048345 424.6153643297509Q900.4207880048345 429.43439642672826 894.7172500166398 432.51491694441637Q889.0137120284448 435.5954374621045 878.8876445841634 435.5954374621045L878.8876445841634 435.5954374621045Q863.5155421988684 435.5954374621045 853.9689786143499 428.7633919575289Q844.4224150298314 421.96184665609877 844.4224150298314 406.16274142676787L844.4224150298314 406.16274142676787L844.4224150298314 374.7475321869785ZM853.4199749577322 347.96835382529406L853.4199749577322 333.48075733121647L898.0112719563458 333.48075733121647Q898.6517762223998 334.3347630192884 899.3227806915991 336.3172762237411Q899.9937851607986 338.29978942819383 899.9937851607986 340.4958040546646L899.9937851607986 340.4958040546646Q899.9937851607986 344.0033274163886 898.2247733783638 345.9858406208413Q896.4557615959291 347.96835382529406 893.4057412813863 347.96835382529406L893.4057412813863 347.96835382529406L853.4199749577322 347.96835382529406ZM861.9905320415971 381.3355760663907L844.4224150298314 381.3355760663907L844.4224150298314 301.8520466694091Q845.5204223430667 301.39454362222773 847.8384377821192 300.84553996561004Q850.1259530180262 300.29653630899236 852.7794706916782 300.29653630899236L852.7794706916782 300.29653630899236Q857.3850013666377 300.29653630899236 859.6725166025446 302.18754890400885Q861.9905320415971 304.04806129587985 861.9905320415971 308.2265891268033L861.9905320415971 308.2265891268033L861.9905320415971 381.3355760663907ZM940.6200557505067 351.2623757650001L940.6200557505067 336.98828069294046L987.1633657504276 336.98828069294046Q987.8343702196269 337.87278658415784 988.4748744856809 339.7332989760289Q989.1458789548801 341.5938113678999 989.1458789548801 344.0033274163886L989.1458789548801 344.0033274163886Q989.1458789548801 347.5108507781126 987.3768671724456 349.40186337312906Q985.6383555931561 351.2623757650001 982.3443336534501 351.2623757650001L982.3443336534501 351.2623757650001L940.6200557505067 351.2623757650001ZM943.6700760650494 323.14118846491687L943.6700760650494 348.85285971651143L926.345960678447 348.85285971651143L926.345960678447 322.2566825736995Q926.345960678447 309.3245964400386 931.0429919628427 301.3030430127915Q935.770523450384 293.28148958554425 944.6765827688484 289.4384639892205Q953.5521418841674 285.59543839289677 965.8742239549199 285.59543839289677L965.8742239549199 285.59543839289677Q978.3793072445446 285.59543839289677 985.5163547805746 288.8894603326029Q992.6534023166043 292.18348227230894 992.6534023166043 297.0025143692863L992.6534023166043 297.0025143692863Q992.6534023166043 299.4425306209204 991.6773958159506 301.39454362222773Q990.6708891121516 303.3770568266805 988.9323775328623 305.1460686091152L988.9323775328623 305.1460686091152Q984.9673511239569 302.9500539826445 979.0503117137441 301.5165444348094Q973.1027721003859 300.08303488697436 967.6127355342092 300.08303488697436L967.6127355342092 300.08303488697436Q954.2231463533669 300.08303488697436 948.9466112092082 305.57307145315116Q943.6700760650494 311.06310801932796 943.6700760650494 323.14118846491687L943.6700760650494 323.14118846491687ZM926.345960678447 339.1842953194112L943.9140776902127 339.1842953194112L943.9140776902127 432.3014155223984Q942.8160703769774 432.72841836643437 940.6200557505067 433.277422023052Q938.424041124036 433.82642567966974 935.770523450384 433.82642567966974L935.770523450384 433.82642567966974Q931.1649927754245 433.82642567966974 928.7554767269357 431.9659132877987Q926.345960678447 430.1054008959277 926.345960678447 425.92687306500426L926.345960678447 425.92687306500426L926.345960678447 339.1842953194112ZM1015.2845530505108 374.7475321869785L1032.8526700622765 377.4010498606306L1032.8526700622765 432.3014155223984Q1031.7546627490412 432.72841836643437 1029.5586481225705 433.277422023052Q1027.3626334960998 433.82642567966974 1024.7091158224475 433.82642567966974L1024.7091158224475 433.82642567966974Q1020.1035851474883 433.82642567966974 1017.6940690989995 431.9659132877987Q1015.2845530505108 430.1054008959277 1015.2845530505108 425.92687306500426L1015.2845530505108 425.92687306500426L1015.2845530505108 374.7475321869785ZM1032.8526700622765 385.7276053193321L1015.2845530505108 383.31808927084336L1015.2845530505108 290.4144704898742Q1016.382560363746 289.98746764583825 1018.6700755996533 289.4384639892205Q1020.9880910387055 288.8894603326029 1023.3976070871943 288.8894603326029L1023.3976070871943 288.8894603326029Q1028.2166391841715 288.8894603326029 1030.534654623224 290.7499727244739Q1032.8526700622765 292.6104851163449 1032.8526700622765 296.7890129472683L1032.8526700622765 296.7890129472683L1032.8526700622765 385.7276053193321ZM1066.0063908813552 299.198528995757L1066.0063908813552 299.198528995757Q1066.0063908813552 294.5929983207976 1069.3004128210612 291.42097719367325Q1072.5944347607672 288.21845586340345 1077.4134668577447 288.21845586340345L1077.4134668577447 288.21845586340345Q1082.4765005798854 288.21845586340345 1085.5570210975734 291.42097719367325Q1088.6070414121161 294.5929983207976 1088.6070414121161 299.198528995757L1088.6070414121161 299.198528995757Q1088.6070414121161 303.83455987386185 1085.5570210975734 307.0065810009862Q1082.4765005798854 310.1786021281106 1077.4134668577447 310.1786021281106L1077.4134668577447 310.1786021281106Q1072.5944347607672 310.1786021281106 1069.3004128210612 307.0065810009862Q1066.0063908813552 303.83455987386185 1066.0063908813552 299.198528995757ZM1068.629408351862 374.7475321869785L1086.1975253636274 374.7475321869785L1086.1975253636274 432.3014155223984Q1085.0995180503921 432.72841836643437 1082.9035034239214 433.277422023052Q1080.7074887974507 433.82642567966974 1078.084471326944 433.82642567966974L1078.084471326944 433.82642567966974Q1073.4789406519847 433.82642567966974 1071.0389244003504 431.9659132877987Q1068.629408351862 430.1054008959277 1068.629408351862 425.92687306500426L1068.629408351862 425.92687306500426L1068.629408351862 374.7475321869785ZM1086.1975253636274 383.31808927084336L1068.629408351862 383.31808927084336L1068.629408351862 331.7117455487817Q1069.7274156650972 331.2847427047457 1072.0454311041497 330.73573904812804Q1074.3329463400567 330.18673539151035 1076.9864640137087 330.18673539151035L1076.9864640137087 330.18673539151035Q1081.5919946886681 330.18673539151035 1083.9100101277204 332.0472477833814Q1086.1975253636274 333.9077601752524 1086.1975253636274 338.29978942819383L1086.1975253636274 338.29978942819383L1086.1975253636274 383.31808927084336ZM1150.9799568445135 375.4185366561779L1154.2739787842195 373.86302629576113Q1163.2715387121202 362.24244889735365 1171.2015915299312 352.14688165621743Q1179.1011441445967 342.0208142119359 1187.4276996032982 329.942733766347L1187.4276996032982 329.942733766347Q1188.3122054945154 329.729232344329 1188.769708541697 329.729232344329Q1189.196711385733 329.729232344329 1189.8677158549322 329.729232344329L1189.8677158549322 329.729232344329Q1194.4732465298916 329.729232344329 1197.0962640003984 331.8337463613634Q1199.7497816740506 333.9077601752524 1199.7497816740506 337.41528353697646L1199.7497816740506 337.41528353697646Q1199.7497816740506 339.82479958546514 1198.7432749702514 342.0208142119359Q1197.7672684695976 344.21682883840657 1195.5712538431271 347.0838479340767L1195.5712538431271 347.0838479340767Q1188.0987040724974 356.2949092839955 1180.2906520672682 365.7499722590777Q1172.5131002651844 375.20503523415994 1165.040550494555 384.2025951620608L1165.040550494555 384.2025951620608L1159.3370125063602 389.02162725903815Q1151.1934582665315 399.7881989693737 1142.653401385812 411.317275758345Q1134.0828443019473 422.84635254731614 1126.1832916872818 433.82642567966974L1126.1832916872818 433.82642567966974Q1125.9392900621183 433.82642567966974 1124.7497821394466 433.82642567966974Q1123.5297740136295 433.82642567966974 1123.1027711695936 433.82642567966974L1123.1027711695936 433.82642567966974Q1118.0397374474528 433.82642567966974 1115.5082205863823 431.630411053199Q1113.0072039284573 429.43439642672826 1113.0072039284573 426.14037448702226L1113.0072039284573 426.14037448702226Q1113.0072039284573 424.3713627045875 1113.769709007093 422.4193497032802Q1114.5322140857286 420.43683649882746 1117.3992331813988 416.9293131371034L1117.3992331813988 416.9293131371034Q1125.2987857960643 406.3762428487858 1134.0828443019473 396.15867479506795Q1142.86690280783 385.94110674135004 1150.9799568445135 375.4185366561779L1150.9799568445135 375.4185366561779ZM1161.746528554849 375.8455395002139L1165.7115549637545 378.499057173866Q1174.7091148916552 390.33313599429147 1183.8286756321377 401.8622127832627Q1192.917736169475 413.3912895722339 1201.9457963005211 425.0423671737869L1201.9457963005211 425.0423671737869Q1201.4882932533396 429.2208950047103 1199.0787772048511 431.630411053199Q1196.6692611563624 434.03992710168774 1192.704234747457 434.03992710168774L1192.704234747457 434.03992710168774Q1189.196711385733 434.03992710168774 1186.7871953372442 432.1794147098167Q1184.3776792887554 430.31890231794563 1181.2971587710674 426.3538759090402L1181.2971587710674 426.3538759090402Q1174.7091148916552 417.1428145591214 1167.3585659336075 406.8032456928218Q1159.9775167724142 396.49417702966764 1153.389472893002 387.49661710176684L1153.389472893002 387.49661710176684L1148.3569393740067 382.8910864268074Q1138.6883749769065 371.2400088252545 1130.3313193150595 360.6869385369369Q1122.0047638563583 350.16436845176474 1113.2207053504753 338.9707938973932L1113.2207053504753 338.9707938973932Q1114.1052112416926 334.5787646444518 1116.5147272901813 332.13874839281766Q1118.92424333867 329.729232344329 1122.431766700394 329.729232344329L1122.431766700394 329.729232344329Q1126.1832916872818 329.729232344329 1128.3793063137523 331.5897447362Q1130.575320940223 333.48075733121647 1132.7713355666938 336.5307776457591L1132.7713355666938 336.5307776457591Q1139.359379446106 345.31483615164194 1146.587927591572 355.7459056273778Q1153.8469759401835 366.17697510311365 1161.746528554849 375.8455395002139L1161.746528554849 375.8455395002139Z " fill="black" transform="matrix(0.727986236510216,0,0,0.727986236510216,0,37.49148854376644)"/></g></svg>